<?xml version="1.0" standalone="no"?>
<!DOCTYPE svg PUBLIC "-//W3C//DTD SVG 20010904//EN"
 "http://www.w3.org/TR/2001/REC-SVG-20010904/DTD/svg10.dtd">
<svg version="1.0" xmlns="http://www.w3.org/2000/svg"
 width="369.000000pt" height="369.000000pt" viewBox="0 0 369.000000 369.000000"
 preserveAspectRatio="xMidYMid meet">
<metadata>
Created by potrace 1.11, written by Peter Selinger 2001-2013
</metadata>
<g transform="translate(0.000000,369.000000) scale(0.100000,-0.100000)"
fill="#000000" stroke="none">
<path d="M555 3679 c-271 -34 -472 -211 -533 -472 -16 -66 -17 -185 -17 -1362
0 -1427 -3 -1358 64 -1497 85 -179 263 -307 464 -334 l49 -7 -17 33 c-77 148
-59 299 53 460 60 86 224 254 342 349 248 202 610 417 997 593 l102 47 -29 52
-29 53 -123 -3 c-143 -3 -243 14 -317 54 -84 46 -117 113 -109 224 11 146 119
263 283 307 67 18 227 18 298 -1 31 -8 85 -29 119 -46 l61 -31 94 94 c52 51
115 121 139 155 58 79 119 212 145 310 25 98 28 275 5 383 -19 90 -89 235
-147 305 -100 120 -258 220 -419 265 -140 39 -339 37 -506 -5 -86 -22 -251
-106 -343 -176 -300 -226 -511 -647 -511 -1018 0 -152 28 -245 96 -325 45 -52
44 -85 -1 -135 -52 -57 -123 -85 -215 -85 -91 -1 -134 19 -202 92 -128 136
-182 396 -129 617 57 233 200 490 386 692 133 144 288 258 499 367 l110 56
-295 -1 c-161 -1 -325 -5 -364 -10z m1183 -374 c66 -20 116 -63 138 -120 13
-36 16 -66 12 -147 -10 -189 -95 -397 -357 -866 -229 -412 -301 -577 -301
-690 0 -97 -64 -147 -185 -147 -59 0 -78 5 -118 28 -57 34 -100 96 -117 169
-33 137 36 359 258 823 352 739 346 725 347 824 0 75 0 75 34 95 78 45 197 58
289 31z"/>
<path d="M2795 3655 c231 -142 380 -338 436 -571 32 -131 30 -305 -5 -437 -77
-298 -303 -602 -593 -799 -40 -27 -73 -53 -73 -59 0 -9 17 -37 46 -77 1 -2 65
17 141 42 250 81 629 186 675 186 57 0 102 -74 76 -126 -23 -47 -58 -63 -240
-109 -98 -24 -261 -72 -364 -106 -211 -71 -195 -53 -150 -172 60 -158 72 -418
26 -576 -89 -309 -379 -612 -763 -797 l-112 -54 625 4 c534 2 635 5 692 19
151 36 279 123 363 247 59 86 90 177 105 300 14 114 14 2436 0 2550 -22 180
-96 327 -215 423 -135 109 -235 136 -525 143 l-205 6 60 -37z"/>
<path d="M1885 1196 c-455 -225 -801 -455 -992 -660 -156 -167 -201 -278 -154
-382 33 -72 135 -102 298 -85 304 32 607 184 849 425 127 127 191 223 238 354
27 79 30 98 30 212 1 144 -16 240 -42 240 -9 0 -111 -47 -227 -104z"/>
</g>
</svg>
